<svg id="Layer_1" data-name="Layer 1" xmlns="http://www.w3.org/2000/svg" viewBox="0 0 595.28 841.89"><defs><style>.cls-1{fill:#f15726;}.cls-2{fill:#fff;}</style></defs><title>MALL_smiles</title><circle class="cls-1" cx="297.64" cy="420.95" r="297.57"/><path class="cls-2" d="M297.64,498.33A249,249,0,0,0,174.05,531a23.81,23.81,0,0,0,23.57,41.38,202.69,202.69,0,0,1,200,0A23.81,23.81,0,0,0,421.23,531,249,249,0,0,0,297.64,498.33Z"/><path class="cls-2" d="M364.89,323.5c6.23-1,7.33-1.39,13.53-2.39s22.41-3.29,33.3-5.27,13.48-2.45,22.79-3.54a48.14,48.14,0,0,1,4,3.54,47.62,47.62,0,1,1-73.57,7.66Z"/><path class="cls-2" d="M224.16,383.19a47.64,47.64,0,0,0,6.23-59.69c-6.23-1-7.33-1.39-13.53-2.39s-22.41-3.29-33.3-5.27-13.48-2.45-22.79-3.54a48.14,48.14,0,0,0-4,3.54,47.62,47.62,0,1,0,67.35,67.35Z"/></svg>