<svg id="Layer_1" data-name="Layer 1" xmlns="http://www.w3.org/2000/svg" viewBox="0 0 595.28 841.89"><defs><style>.cls-1{fill:#8cc161;}.cls-2{fill:#fff;}</style></defs><title>MALL_smiles</title><circle class="cls-1" cx="297.64" cy="420.95" r="297.57"/><path class="cls-2" d="M298.75,492.38H155a23.8,23.8,0,0,0-19.37,37.74,202,202,0,0,0,324,0,23,23,0,0,0,2.16-24.26,23.92,23.92,0,0,0-21.53-13.48Z"/><path class="cls-2" d="M364.89,323.5a47.63,47.63,0,1,1,6.23,59.69A47.82,47.82,0,0,1,364.89,323.5Z"/><path class="cls-2" d="M224.16,383.19a47.62,47.62,0,0,0-63.4-70.89,48.14,48.14,0,0,0-4,3.54,47.62,47.62,0,1,0,67.35,67.35Z"/></svg>