<svg id="Layer_1" data-name="Layer 1" xmlns="http://www.w3.org/2000/svg" viewBox="0 0 595.28 841.89"><defs><style>.cls-1{fill:#ffa98d;}.cls-2{fill:#fff;}</style></defs><title>MALL_smiles</title><circle class="cls-1" cx="297.64" cy="420.95" r="297.57"/><path class="cls-2" d="M297.64,504.28c-38.94,0-75,6.79-115.06,20.89a23.81,23.81,0,1,0,15.83,44.92c35.16-12.39,66-18.18,99.24-18.18,37,0,77.62,7.05,96,16.78a23.81,23.81,0,0,0,22.25-42.1C389.39,512.56,341.66,504.28,297.64,504.28Z"/><path class="cls-2" d="M365.52,323.5a47.71,47.71,0,0,1,42.2-21.55c7.56,9.3,8.33,10.18,15.3,18.92s7.3,9.06,12.71,15.66,8.11,9.59,16.68,20.72a47.63,47.63,0,1,1-86.89-33.75Z"/><path class="cls-2" d="M224.16,383.19a47.62,47.62,0,0,0-36-81.24c-7.56,9.3-8.33,10.18-15.3,18.92s-7.3,9.06-12.71,15.66-8.11,9.59-16.68,20.72a47.63,47.63,0,0,0,80.67,25.94Z"/></svg>