<svg id="Layer_1" data-name="Layer 1" xmlns="http://www.w3.org/2000/svg" viewBox="0 0 595.28 841.89"><defs><style>.cls-1{fill:#f9ca36;}.cls-2{fill:#fff;}</style></defs><title>MALL_smiles</title><circle class="cls-1" cx="297.64" cy="420.95" r="297.57"/><path class="cls-2" d="M297.85,513.17c-30.38,5.31-60,11.64-89.75,18.3a23.81,23.81,0,0,0,10.4,46.47c29.18-6.53,57.78-12.38,88-17.94s60.53-10.54,91-14.93a23.81,23.81,0,0,0-6.79-47.14c-31.07,4.48-62,9.55-182.57,33.53Z"/><path class="cls-2" d="M364.89,323.5a47.63,47.63,0,1,1,6.23,59.69A47.82,47.82,0,0,1,364.89,323.5Z"/><path class="cls-2" d="M224.16,383.19a47.62,47.62,0,0,0-63.4-70.89,48.14,48.14,0,0,0-4,3.54,47.62,47.62,0,1,0,67.35,67.35Z"/></svg>